<?xml version="1.0" encoding="UTF-8"?>
<svg id="Layer_2" data-name="Layer 2" xmlns="http://www.w3.org/2000/svg" width="141.25" height="92.95" viewBox="0 0 141.25 92.95">
  <defs>
    <style>
      .cls-1 {
        fill: #00a651;
      }

      .cls-1, .cls-2, .cls-3, .cls-4 {
        stroke: #231f20;
        stroke-miterlimit: 10;
        stroke-width: 3px;
      }

      .cls-2 {
        fill: #ec008c;
      }

      .cls-5 {
        fill: none;
      }

      .cls-3 {
        fill: #ed1c24;
      }

      .cls-4 {
        fill: #fff;
      }
    </style>
  </defs>
  <g id="Layer_3" data-name="Layer 3">
    <g>
      <path class="cls-2" d="M66.44,7.84c.05-.5.51-4.45,3.27-5.75.95-.45,2.03-.52,2.57-.56,1.63-.11,2.22.1,1.75.05,1.59.19,3.03,1.1,3.8,2.5,0,0,.01.02.02.03,1,1.85.84,3.65.75,4.34"/>
      <path class="cls-1" d="M12.76,71.17l1.33-25.23c.03-.63.1-1.25.23-1.87.74-3.51,2.15-8.17,5.02-13.11,4.64-8,10.75-12.72,14.5-15.13.41-.26.82-.5,1.26-.71,4.2-2.04,9.73-4.24,16.44-5.71,8.55-1.87,15.97-1.89,21.3-1.48,5.98.2,14.18,1.09,23.45,4.04,7.53,2.4,13.69,5.49,18.39,8.32,1.77,1.07,3.27,2.52,4.36,4.28,2.87,4.62,6.08,10.97,8.21,18.94,3.55,13.31,2.35,24.64,1.18,31.01"/>
      <path class="cls-3" d="M139.75,82.52c.06,5.56-10.18,10.12-14.93,8.66-18.63-9.59-38.97-14.84-60.64-14.25-12.81.35-24.66,2.56-36.4,6.54-3.77,1.29-6.71,2.46-9.89,3.86-1.75.73-3.13,1.66-4.94,1.47-4.45-.47-9.97-3.16-11.33-7.92l-.04-.17c-.38-1.67.67-3.06,1.98-3.93,2.95-2.1,6.02-3.96,9.2-5.61,16.23-8.41,35.42-11.26,56.63-11.59,21.16.2,41.95,5.32,59.05,14.93,1.76.99,3.47,2.03,5.15,3.11,1.9,1.18,3.43,2.14,4.71,2.96.69.45,1.3,1.08,1.45,1.94Z"/>
      <path class="cls-4" d="M122.6,71.47c-.67-.7-1.84-1.29-2.43-3.43-.38-1.37-.39-2.56-.33-3.39.37-1.62.7-3.33.99-5.12.64-3.99.92-7.69.99-11.04-.22-2.94-.6-6.16-1.24-9.6-.92-4.99-1.9-8.57-3.22-12.35-.04-.11-.36-1.04-.4-1.15l-3-5.55c-8.07-4.79-15.35-7.33-20.52-8.74-12.06-3.3-21.81-2.98-29.76-2.66-7.11.29-12.36.54-19.07,2.77-7.31,2.43-12.71,5.99-16.11,8.63-1.87,5.43-2.99,10.07-3.62,13.5-.64,3.44-1.02,6.66-1.24,9.6.07,3.35.35,7.06.99,11.04.29,1.79.62,3.5.99,5.12.06.82.05,2.02-.33,3.39-.59,2.14-1.76,3.57-2.43,4.27,10.54-3.59,27.87-8.05,49.5-7.16,22.49.93,39.94,7.23,50.25,11.87Z"/>
      <path class="cls-5" d="M141.23,82.26c-.14-.8-.62-1.96-2.12-2.94-1.29-.83-2.82-1.79-4.71-2.96-1.49-.96-2.91-1.83-4.31-2.64,1.73-10.18,1.25-20.74-1.38-30.6-1.82-6.81-4.64-13.32-8.39-19.35-1.19-1.92-2.88-3.57-4.86-4.77-5.88-3.53-12.18-6.38-18.71-8.46-5.41-1.72-10.98-2.92-16.59-3.58h-.01c-.05-1.04-.3-2.31-1-3.6-.9-1.65-2.54-2.82-4.45-3.19-.47-.16-1.21-.21-2.51-.13-.62.04-1.91.13-3.11.7-2.45,1.16-3.46,3.79-3.87,5.5-4.7.12-9.38.69-13.99,1.7-5.79,1.27-11.43,3.23-16.78,5.83-.5.24-.97.5-1.42.79-6.18,3.99-11.36,9.4-14.98,15.64-2.43,4.2-4.18,8.76-5.18,13.56-.14.66-.23,1.34-.27,2.1l-1.28,24.38c-3.02,1.61-5.91,3.39-8.58,5.29-2.1,1.4-3.08,3.46-2.61,5.52l.06.24c1.55,5.43,7.62,8.48,12.61,9,1.83.19,3.25-.47,4.62-1.1.34-.16.69-.32,1.08-.49,3.36-1.48,6.28-2.62,9.77-3.81,11.83-4.01,23.59-6.12,35.96-6.46,20.51-.56,40.67,4.18,59.91,14.08l.25.1c.75.23,1.6.34,2.52.34,3.22,0,7.22-1.36,10.26-3.62,2.66-2,4.12-4.42,4.09-6.83l-.02-.24ZM125.81,43.89c2.43,9.11,2.95,18.85,1.49,28.29-1.26-.68-2.53-1.33-3.83-1.95-.11-.11-.24-.22-.37-.33-.58-.52-1.14-1-1.49-2.26-.25-.89-.34-1.82-.29-2.76.39-1.69.72-3.41.99-5.1.59-3.7.93-7.49,1.01-11.25v-.14c-.25-3.26-.67-6.55-1.27-9.77-.72-3.9-1.48-7.02-2.5-10.24,2.72,4.91,4.82,10.11,6.26,15.51ZM29.78,20.74c1.53-1.33,3.16-2.55,4.87-3.66.35-.22.71-.42,1.1-.62,5.13-2.49,10.55-4.37,16.11-5.59,6.84-1.49,13.87-1.98,20.93-1.45,7.83.26,15.59,1.6,23.05,3.98,5.92,1.89,11.64,4.42,17.01,7.55l2.73,5.06.36,1.04c1.38,3.94,2.3,7.45,3.17,12.12.57,3.09.97,6.24,1.21,9.37-.08,3.6-.41,7.22-.97,10.76-.27,1.67-.6,3.36-.98,5.03l-.03.22c-.09,1.18,0,2.35.28,3.48-14.85-6.3-31.93-9.79-49.25-9.95-17.03.27-31.06,2.17-43.01,5.92.15-.36.27-.73.37-1.1.35-1.27.48-2.58.38-3.9l-.03-.22c-.38-1.66-.71-3.35-.97-5.02-.57-3.55-.9-7.17-.98-10.77.24-3.13.65-6.28,1.22-9.37.81-4.36,1.96-8.69,3.43-12.88ZM15.59,46.01c.03-.59.09-1.13.2-1.63.94-4.49,2.57-8.75,4.85-12.67,1.31-2.27,2.85-4.41,4.57-6.41-.72,2.57-1.33,5.17-1.81,7.78-.6,3.21-1.02,6.5-1.26,9.76v.07s-.01.07-.01.07c.08,3.76.42,7.55,1.01,11.25.28,1.7.61,3.41.99,5.1.05.94-.04,1.87-.29,2.77-.42,1.52-1.2,2.65-1.85,3.39-2.63.96-5.16,2.03-7.59,3.2l1.19-22.68ZM135.36,86.92c-3,2.24-7.52,3.53-9.98,2.86-19.66-10.09-40.25-14.92-61.24-14.35-12.67.35-24.73,2.51-36.85,6.62-3.57,1.22-6.56,2.39-9.98,3.9-.4.16-.79.34-1.16.52-1.14.53-2.05.94-3.04.84-4.15-.44-8.93-2.93-10.03-6.77l-.04-.16c-.25-1.1.74-1.94,1.39-2.38,2.82-2,5.85-3.86,9.02-5.5,14.32-7.42,32.11-11.05,55.93-11.42,21.05.2,41.77,5.43,58.32,14.74,1.66.93,3.32,1.93,5.1,3.07,1.89,1.18,3.42,2.14,4.68,2.95.42.27.68.55.77.84-.07,1.86-1.83,3.45-2.89,4.24Z"/>
    </g>
  </g>
</svg>