<svg xmlns="http://www.w3.org/2000/svg" viewBox="0 0 54.65 50"><defs><style>.cls-1{fill:#ffffff;}</style></defs><title>Asset 208</title><g id="Layer_2" data-name="Layer 2"><g id="Layer_1-2" data-name="Layer 1"><path class="cls-1" d="M29.3,0h2.33c1.44.44,2.89.84,4.31,1.33,1.58.56,1.83,1.1,1.44,2.75L34.35,17q-2.54,10.73-5,21.46a8.72,8.72,0,0,0-.13,1l.38.09A10.87,10.87,0,0,0,30,38.43q2.12-7.84,4.2-15.69Q36.51,14,38.86,5.26C39.36,3.38,40,3,41.67,4.05s3.23,2.38,4.82,3.62A1.7,1.7,0,0,1,47,9.56a9,9,0,0,1-.65,1.61L37.32,28.56q-2.77,5.3-5.53,10.61a8.16,8.16,0,0,0-.38,1.15l.35.14c.25-.4.53-.79.76-1.21Q39.77,26.49,47,13.7c1.2-2.12,2.47-2.2,3.92-.22a7.28,7.28,0,0,1,.77,1.43c.27.63.49,1.3.74,1.95a3.85,3.85,0,0,1-.8,4.45c-5.84,6.42-11.58,12.93-17.35,19.41-.3.34-.55.74-.93,1.25.93.12,1.17-.46,1.51-.81Q43.13,32.6,51.38,24c1.54-1.6,2.3-1.47,3.27.43V29.3A6.14,6.14,0,0,1,52,32.92c-7,5.16-14,10.35-21,15.5-.8.59-1.7,1.06-2.55,1.58H26.28a19.85,19.85,0,0,1-1.9-1.09q-10.86-8-21.7-16A6.09,6.09,0,0,1,0,29.3V24.42l.26-.51c.59-1.15,1.3-1.32,2.33-.53a8.23,8.23,0,0,1,1,.95l9.34,9.72q3.54,3.69,7.09,7.37a7.58,7.58,0,0,0,.9.68l.27-.27a11,11,0,0,0-.69-.95l-8.74-9.8Q7.26,26,2.72,20.93a2.71,2.71,0,0,1-.91-2.28A11.54,11.54,0,0,1,3.89,13.3c1-1.35,2.39-2.13,3.72.3,2.45,4.48,5,8.9,7.53,13.34q3.59,6.31,7.17,12.63a7,7,0,0,0,.67.88l.3-.19c-.16-.4-.29-.82-.49-1.21L10.12,14.76c-.74-1.4-1.5-2.79-2.2-4.22s-.56-2.27.67-3.28A40.68,40.68,0,0,1,12.68,4.2c1.93-1.23,2.57-.91,3.17,1.3q4.4,16.41,8.8,32.83c.11.4.29.79.44,1.18l.4-.11c-.1-.56-.17-1.13-.3-1.68q-4-16.89-8-33.77c-.35-1.49-.06-2.08,1.37-2.59S21.55.45,23,0h2.33a2.41,2.41,0,0,1,1.22,2.43q.11,15.41.23,30.8c0,1.7,0,3.41.05,5.11,0,.44-.08.94.61,1.17a3.28,3.28,0,0,0,.3-.71,6,6,0,0,0,0-1q.15-17.61.28-35.21A2.49,2.49,0,0,1,29.3,0Z"/><path class="cls-1" d="M16.65,49.78c-1.12,0-2.24,0-3.36,0-1.7-.08-2.36-.69-2.62-2.36s-.49-3.06-.64-4.6a2.12,2.12,0,0,1,.39-1.46c.43-.49,1-.06,1.47.18a5.77,5.77,0,0,1,.77.52l7.61,5.52a2.77,2.77,0,0,1,.73.56,1.76,1.76,0,0,1,.39,1.1c0,.23-.58.5-.91.52-1.27.06-2.55,0-3.83,0Z"/><path class="cls-1" d="M37.83,49.79c-.85,0-1.7,0-2.55,0s-1.75.33-2.05-.59.75-1.32,1.37-1.77c2-1.45,3.95-2.86,5.93-4.28.44-.32.86-.66,1.3-1a3.88,3.88,0,0,1,1-.63,2.33,2.33,0,0,1,1.39-.21c.58.21.55.87.47,1.42-.17,1.23-.37,2.45-.55,3.67-.05.35-.08.69-.13,1-.27,1.61-.91,2.23-2.54,2.31-1.2.06-2.4,0-3.6,0Z"/></g></g></svg>